<?xml version="1.0" encoding="UTF-8"?>
<svg width="190px" height="60px" viewBox="0 0 190 60" version="1.1" xmlns="http://www.w3.org/2000/svg" xmlns:xlink="http://www.w3.org/1999/xlink">
    <!-- Generator: Sketch 48.2 (47327) - http://www.bohemiancoding.com/sketch -->
    <title>logo</title>
    <desc>Created with Sketch.</desc>
    <defs>
        <polygon id="path-1" points="0 0.0589457831 65.9115354 0.0589457831 65.9115354 28.4017341 0 28.4017341"></polygon>
    </defs>
    <g id="订单状态" stroke="none" stroke-width="1" fill="none" fill-rule="evenodd" transform="translate(-30.000000, -21.000000)">
        <g id="Group-8">
            <g id="Group-13" transform="translate(30.000000, 20.000000)">
                <g id="logo" transform="translate(0.000000, 0.745482)">
                    <path d="M169.988536,15.629503 L173.537873,7.44347892 L169.450584,7.44347892 L165.153265,17.3475151 L166.848386,17.4963102 C168.187542,17.6136295 169.452301,16.8616416 169.988536,15.629503" id="Fill-1" fill="#FFA42F"></path>
                    <path d="M189.362527,21.0293373 L189.357377,21.0293373 C189.357949,21.0110241 189.362527,20.9932831 189.362527,20.9743976 C189.362527,19.7119277 188.339274,18.689247 187.076804,18.689247 L187.076804,18.6886747 L185.614033,18.6886747 L165.941593,18.6886747 L164.439334,22.4371687 L170.014575,22.4371687 L166.264364,33.6740663 L170.216593,33.6740663 L173.967377,22.4371687 L183.761533,22.4371687 L183.761533,22.4394578 C184.77563,22.4394578 185.598581,23.2549699 185.612316,24.2656325 L185.614033,24.2656325 L185.614033,29.9335843 L181.846654,29.9335843 L181.846654,33.681506 L187.076804,33.681506 L187.076804,33.6763554 C188.339274,33.6763554 189.362527,32.6536747 189.362527,31.3906325 L189.362527,21.0293373 Z" id="Fill-3" fill="#FFA42F"></path>
                    <path d="M183.62178,12.5472681 L183.622925,12.5466958 L185.882322,17.6927199 L189.819672,17.3476295 L186.096358,8.86859337 C185.755846,8.03419578 184.93919,7.44473795 183.982322,7.44473795 C183.98175,7.44473795 183.98175,7.44531024 183.98175,7.44531024 L181.383557,7.44531024 L176.358858,7.44531024 L174.727834,11.1932319 L181.535786,11.1932319 C182.465756,11.1932319 183.264672,11.749497 183.62178,12.5472681" id="Fill-5" fill="#FFA42F"></path>
                    <path d="M154.479729,26.1290633 L154.414488,14.8858705 L158.068554,14.8641235 L158.13494,26.1078886 L154.479729,26.1290633 Z M161.936084,13.3899066 L161.936084,13.3384006 L161.931506,13.3384006 C161.903464,12.1011114 160.895663,11.104756 159.651506,11.104756 C159.644066,11.104756 159.638343,11.1070452 159.630904,11.1070452 L152.951145,11.1459608 L152.951145,11.1511114 C152.948283,11.1511114 152.945994,11.1499669 152.94256,11.1499669 C151.680663,11.1499669 150.657982,12.1732199 150.657982,13.4351175 C150.657982,13.4660211 150.665422,13.4940633 150.667139,13.5243946 L150.657982,13.5243946 L150.775873,33.6815633 L154.524367,33.680991 L154.502048,29.8775572 L158.156687,29.8558102 L158.178434,33.6787018 L161.936084,33.6804187 L161.936084,13.3904789 C161.936084,13.3904789 161.936657,13.3904789 161.936657,13.3899066 L161.936084,13.3899066 Z" id="Fill-7" fill="#93C83E"></path>
                    <path d="M146.910346,13.4901145 C146.910346,13.4861084 146.911491,13.4821024 146.911491,13.4780964 C146.911491,12.2161988 145.88881,11.1929458 144.62634,11.1929458 C144.618901,11.1929458 144.612033,11.1952349 144.605738,11.1952349 L139.402485,11.2255663 L139.380738,7.44445181 L135.632244,7.4450241 L135.654563,11.2478855 L131.979322,11.2690602 L131.989623,15.0175542 L135.67631,14.9958072 L135.76387,29.9365602 L133.492455,29.9583072 L131.989623,33.6776145 L137.234654,33.678759 C137.23637,33.678759 137.237515,33.6793313 137.23866,33.6793313 C138.50113,33.6793313 139.524383,32.6560783 139.524383,31.3941807 C139.524383,31.3793012 139.519804,31.364994 139.519804,31.3495422 L139.520377,31.3495422 L139.424804,14.9740602 L143.171009,14.951741 L143.279744,33.6793313 L147.027666,33.6810482 L146.910346,13.4901145 Z" id="Fill-9" fill="#93C83E"></path>
                    <polygon id="Fill-11" fill="#FFA42F" points="70.1430783 21.9291476 96.2268735 21.9291476 96.2268735 18.1812259 71.6453373 18.1812259"></polygon>
                    <path d="M122.520413,29.7830151 L109.460202,29.7830151 L109.460202,27.568256 L113.391828,27.568256 L113.391828,23.677262 L109.460202,23.677262 L109.460202,20.3488283 L115.295834,20.3488283 L115.295834,16.4578343 L109.460202,16.4578343 L109.460202,13.1288283 L113.391828,13.1288283 L113.391828,9.23840663 L109.460202,9.23840663 L109.460202,6.43647892 L105.569208,6.43647892 L105.569208,9.23840663 L101.638154,9.23840663 L101.638154,13.1288283 L105.569208,13.1288283 L105.569208,16.4578343 L99.7335753,16.4578343 L99.7335753,20.3488283 L105.569208,20.3488283 L105.569208,29.7830151 L103.582792,29.7830151 L103.582792,24.3182259 L99.6917982,24.3182259 L99.6917982,31.2995813 C99.6917982,32.6095512 100.753967,33.6717199 102.063937,33.6717199 L102.063937,33.674009 L103.271467,33.674009 L103.582792,33.674009 L126.888696,33.674009 C126.942491,33.674009 126.991708,33.6722922 127.043786,33.6717199 L129.216196,33.6717199 L130.77969,29.7830151 L122.520413,29.7830151 Z" id="Fill-13" fill="#FFA42F"></path>
                    <path d="M118.793265,27.4558584 C119.043355,27.5359789 119.295163,27.5611596 119.544108,27.5577259 L119.544108,27.5680271 L121.033777,27.5680271 L127.897813,27.5680271 L127.897813,23.6770331 L121.604349,23.6770331 L121.604349,23.6764608 C121.603205,23.6764608 121.60206,23.6770331 121.600916,23.6770331 C121.292452,23.6770331 121.045795,23.4320934 121.033777,23.1270633 L121.033777,20.8533584 C121.035494,20.5443223 121.283295,20.2953765 121.591187,20.288509 L125.523386,20.288509 L125.523386,20.2793524 L125.525675,20.2793524 C126.836217,20.2793524 127.897813,19.2171837 127.897813,17.9072139 C127.897813,17.8883283 127.892663,17.8711596 127.89209,17.8522741 L127.897813,17.8522741 L127.897813,17.2897139 L127.897813,11.6034488 C127.897813,10.2934789 126.836217,9.23073795 125.525675,9.23073795 C125.500494,9.23073795 125.476458,9.23817771 125.451277,9.23875 L125.450705,9.23073795 L124.006819,9.23073795 L117.143355,9.23073795 L117.143355,13.1217319 L123.42709,13.1217319 L123.42709,13.1291717 C123.428235,13.1291717 123.42938,13.1285994 123.430524,13.1285994 C123.743566,13.1285994 123.998807,13.3821235 124.001096,13.695738 L124.006819,13.695738 L124.006819,15.8223645 L124.00453,15.8223645 L124.00453,15.8257982 C124.00453,16.1399849 123.751578,16.3940813 123.437964,16.3963705 L123.437964,16.3975151 L119.561849,16.3975151 L119.561277,16.4020934 C119.545253,16.4015211 119.530946,16.3975151 119.515494,16.3975151 C118.205524,16.3975151 117.142783,17.4591114 117.142783,18.7690813 C117.142783,18.7696536 117.143355,18.7696536 117.143355,18.7702259 L117.143355,20.288509 L117.143355,23.6770331 L117.142783,23.6770331 L117.142783,25.1644127 L117.154229,25.1644127 C117.140494,26.1802259 117.775163,27.1307982 118.793265,27.4558584" id="Fill-15" fill="#FFA42F"></path>
                    <g id="Group-19" transform="translate(0.000000, 0.513343)">
                        <mask id="mask-2" fill="white">
                            <use xlink:href="#path-1"></use>
                        </mask>
                        <g id="Clip-18"></g>
                        <path d="M64.9013675,16.9414187 L34.3903434,0.366207831 C33.6389277,-0.0418343373 32.732994,-0.0435512048 31.9804337,0.361057229 L1.00814458,17.0060873 C-0.319566265,17.7197319 -0.340168675,19.6174428 0.971518072,20.3602741 L14.777994,28.1748825 C15.9311566,28.8272922 17.3590181,27.9946114 17.3590181,26.6703343 L17.3590181,26.3715994 C17.3590181,25.9801536 17.1484157,25.6190392 16.8079036,25.4261777 L6.68468072,19.6964187 C5.94127711,19.2752139 5.95272289,18.1998825 6.70585542,17.7952741 L31.7349217,4.34361747 C32.6351325,3.86003313 33.7196205,3.86232229 34.6175422,4.34991265 L59.1344096,17.6682259 C59.8961265,18.081991 59.8932651,19.1767801 59.129259,19.5876837 L49.9634759,24.5087982 C49.6109458,24.6976536 49.3911867,25.0650633 49.3911867,25.4650934 L49.3911867,25.7855753 C49.3911867,27.0881054 50.7812771,27.9196416 51.9281446,27.3027139 L64.8927831,20.3425331 C66.2473916,19.6157259 66.2519699,17.6750934 64.9013675,16.9414187" id="Fill-17" fill="#FFA42F" mask="url(#mask-2)"></path>
                    </g>
                    <path d="M36.8944518,20.8907289 L34.4748133,20.2686506 C33.7897831,20.0923855 33.0921627,20.5107289 33.0921627,21.096753 L33.0921627,38.0639819 C33.0921627,38.4456988 33.6049337,38.6803373 34.0038193,38.4806084 L37.8936687,37.1414518 C38.0716506,37.0521747 38.1798133,36.8942229 38.1798133,36.7236807 L38.1798133,22.3214518 C38.1798133,21.6661807 37.6596024,21.0870241 36.8944518,20.8907289" id="Fill-20" fill="#FFA42F"></path>
                    <g id="Group-24" transform="translate(20.602410, 13.103705)" fill="#FFA42F">
                        <path d="M22.0232892,30.5014096 C18.903741,29.4461084 15.802506,28.9041506 12.7756687,28.9041506 C9.75684337,28.9041506 6.66705422,29.4421024 3.55723494,30.4911084 L3.55723494,7.47878916 C3.55723494,7.24071687 3.6224759,7.01351807 3.74093976,6.81779518 C3.85940361,6.62207229 4.03051807,6.45839759 4.24169277,6.34909036 C4.97479518,5.96851807 5.80518675,5.56734337 6.67735542,5.19592771 C7.8974759,4.67571687 9.19771687,4.21330723 10.4212711,3.94662048 C10.7703675,3.86993373 11.113741,3.80927108 11.4468133,3.76806627 C11.7804578,3.72628916 12.1038012,3.70454217 12.4134096,3.70454217 C14.9755482,3.70454217 18.6954277,5.1965 21.304494,6.45038554 C21.5253976,6.55568675 21.7045241,6.71993373 21.8292831,6.91966265 C21.9540422,7.11881928 22.0232892,7.35231325 22.0232892,7.59725301 L22.0232892,30.5014096 Z M15.6714518,39.5664699 C14.8691024,39.2820422 13.8733193,39.1109277 12.7899759,39.1109277 C11.7220843,39.1109277 10.7388916,39.2774639 9.94283735,39.5544518 C9.89304819,39.5195422 9.84211446,39.4840602 9.7923253,39.448006 L4.57705422,33.7514398 C7.35837952,32.8048735 10.1076566,32.3201446 12.7756687,32.3201446 C15.4419639,32.3201446 18.1900964,32.8048735 20.9708494,33.7502952 L15.6714518,39.5664699 Z M24.7422349,4.39758434 C23.7470241,3.86249398 21.7491627,2.84153012 19.4588614,1.95390964 C17.167988,1.06628916 14.5835301,0.312584337 12.4134096,0.312584337 C9.97831928,0.312584337 7.18154217,1.26143976 4.87636145,2.28354819 C4.10777711,2.62463253 3.39413253,2.97315663 2.76633133,3.29821687 C1.92907229,3.73086747 1.24461446,4.1200241 0.789072289,4.389 C0.692355422,4.4468012 0.604222892,4.5154759 0.527536145,4.59330723 C0.298048193,4.82851807 0.165277108,5.14671084 0.165277108,5.48493373 L0.165277108,33.1802952 L0.165277108,33.1808675 L0.165277108,33.1848735 L0.165849398,33.1848735 L0.165849398,33.2896024 L0.165277108,33.2901747 C0.165277108,33.290747 0.165849398,33.290747 0.165849398,33.290747 L0.165849398,33.2953253 L0.166421687,33.2953253 C0.167566265,34.0656265 0.526963855,34.7449337 1.07979518,35.1981867 L1.07464458,35.2102048 L11.929253,46.5924639 L11.9326867,46.5964699 C12.1759096,46.8173735 12.4832289,46.9278253 12.7899759,46.9278253 C12.8672349,46.9278253 12.9439217,46.9203855 13.0194639,46.9072229 C13.2466627,46.8654458 13.4652771,46.7618614 13.6472651,46.5964699 L24.655247,35.0734277 L24.6541024,35.0671325 C25.1210904,34.6155964 25.415247,33.9860783 25.415247,33.2855964 C25.415247,33.2661386 25.4095241,33.2483976 25.4095241,33.2300843 L25.4095241,33.229512 L25.415247,33.2289398 L25.415247,33.118488 L25.415247,5.52098795 C25.415247,5.05056627 25.1571446,4.61963253 24.7422349,4.39758434 Z" id="Fill-22"></path>
                    </g>
                    <path d="M13.6842922,32.8244458 L13.6842922,10.707759 L12.1768825,11.5175482 L12.1768825,32.8244458 L10.2848946,40.2395964 C10.0731476,41.0654096 10.6975151,41.8689036 11.5502259,41.8689036 L14.3109488,41.8689036 C15.1636596,41.8689036 15.7874548,41.0654096 15.5768524,40.2395964 L13.6842922,32.8244458 Z" id="Fill-25" fill="#93C83E"></path>
                    <polygon id="Fill-27" fill="#FFA42F" points="80.2766024 49.2123464 78.6364217 43.4745753 77.6114518 43.4745753 75.9712711 49.2123464 74.2355181 43.4745753 73.0331386 43.4745753 75.4384699 50.5543645 76.4634398 50.5543645 78.1305181 44.8577982 79.7706988 50.5543645 80.8099759 50.5543645 83.2153072 43.4745753 82.0123554 43.4745753"></polygon>
                    <polygon id="Fill-29" fill="#FFA42F" points="90.5951476 49.2123464 88.9555392 43.4745753 87.9305693 43.4745753 86.2903886 49.2123464 84.5540633 43.4745753 83.3516837 43.4745753 85.7570151 50.5543645 86.7819849 50.5543645 88.4496355 44.8577982 90.089244 50.5543645 91.1285211 50.5543645 93.5338524 43.4745753 92.3309006 43.4745753"></polygon>
                    <polygon id="Fill-31" fill="#FFA42F" points="100.914265 49.2123464 99.2740843 43.4745753 98.2491145 43.4745753 96.6089337 49.2123464 94.8731807 43.4745753 93.6708012 43.4745753 96.0761325 50.5543645 97.1011024 50.5543645 98.7681807 44.8577982 100.408361 50.5543645 101.447639 50.5543645 103.85297 43.4745753 102.650018 43.4745753"></polygon>
                    <path d="M105.725042,48.9245422 C105.488114,48.9245422 105.291819,49.0023735 105.137301,49.1574639 C104.973627,49.3033976 104.891217,49.4951145 104.891217,49.7326145 C104.891217,49.9609578 104.973627,50.1566807 105.137301,50.3209277 C105.310133,50.4765904 105.506428,50.5544217 105.725042,50.5544217 C105.943657,50.5544217 106.139952,50.4765904 106.312211,50.3209277 C106.476458,50.1664096 106.558867,49.9701145 106.558867,49.7326145 C106.558867,49.4951145 106.476458,49.3033976 106.312211,49.1574639 C106.157693,49.0023735 105.96197,48.9245422 105.725042,48.9245422" id="Fill-33" fill="#FFA42F"></path>
                    <path d="M110.412892,41.7625151 C109.929307,42.0452259 109.473765,42.2466717 109.045693,42.3651355 L109.045693,43.4879669 C109.97509,43.2138404 110.740813,42.7668825 111.342289,42.1459488 L111.342289,50.5540211 L112.462831,50.5540211 L112.462831,40.7758886 L111.588373,40.7758886 C111.251295,41.1598946 110.858705,41.4883886 110.412892,41.7625151" id="Fill-35" fill="#FFA42F"></path>
                    <polygon id="Fill-37" fill="#FFA42F" points="116.6315 41.8033193 121.893127 41.8033193 118.257946 50.5541928 119.447163 50.5541928 123.041139 41.694012 123.041139 40.7760602 116.6315 40.7760602"></polygon>
                    <path d="M125.816111,40.8034729 C125.578611,40.8034729 125.382889,40.8813042 125.22837,41.0363946 C125.07328,41.1645873 124.995449,41.3563042 124.995449,41.6115452 C124.995449,41.8490452 125.07328,42.0453404 125.22837,42.2004307 C125.401202,42.3560934 125.596925,42.4333524 125.816111,42.4333524 C126.04331,42.4333524 126.244184,42.3560934 126.417587,42.2004307 C126.572105,42.0275994 126.649364,41.8307319 126.649364,41.6115452 C126.649364,41.3648886 126.572105,41.1731717 126.417587,41.0363946 C126.261925,40.8813042 126.062196,40.8034729 125.816111,40.8034729" id="Fill-39" fill="#FFA42F"></path>
                    <path d="M125.268946,51.3349669 C125.268946,52.0102681 124.945602,52.348491 124.298916,52.348491 L123.72491,52.348491 L123.72491,53.2658705 L124.380753,53.2658705 C125.702169,53.2658705 126.36259,52.6357801 126.36259,51.3755994 L126.36259,43.4745753 L125.268946,43.4745753 L125.268946,51.3349669 Z" id="Fill-41" fill="#FFA42F"></path>
                    <path d="M129.328651,40.8034729 C129.091151,40.8034729 128.895428,40.8813042 128.74091,41.0363946 C128.585819,41.1645873 128.507988,41.3563042 128.507988,41.6115452 C128.507988,41.8490452 128.585819,42.0453404 128.74091,42.2004307 C128.913169,42.3560934 129.109464,42.4333524 129.328651,42.4333524 C129.547265,42.4333524 129.742988,42.3560934 129.915819,42.2004307 C130.080066,42.0361837 130.161904,41.8404608 130.161904,41.6115452 C130.161904,41.3648886 130.080066,41.1731717 129.915819,41.0363946 C129.761301,40.8813042 129.565006,40.8034729 129.328651,40.8034729" id="Fill-43" fill="#FFA42F"></path>
                    <polygon id="Fill-45" fill="#FFA42F" points="128.781657 50.5543072 129.875301 50.5543072 129.875301 43.4745181 128.781657 43.4745181"></polygon>
                    <path d="M136.777337,47.6782108 C136.777337,48.2533614 136.535259,48.7604096 136.052247,49.1982108 C135.551494,49.6365843 134.946012,49.8557711 134.235229,49.8557711 C133.779114,49.8557711 133.419717,49.7510422 133.155319,49.541012 C132.900078,49.3218253 132.772458,49.0391145 132.772458,48.6917349 C132.772458,47.6146867 133.565651,47.0755904 135.150319,47.0755904 L136.777337,47.0624277 L136.777337,47.6782108 Z M135.00038,43.2824578 C134.107036,43.2824578 133.40541,43.4655904 132.8955,43.8301386 C132.312337,44.2227289 131.966102,44.8253494 131.856795,45.638 L132.936705,45.638 C133.018542,45.1544157 133.237157,44.7887229 133.59312,44.5426386 C133.911313,44.3045663 134.357699,44.1861024 134.931705,44.1861024 C136.162127,44.1861024 136.777337,44.7801386 136.777337,45.966494 L136.777337,46.1994157 L135.082217,46.2125783 C134.09788,46.2125783 133.314416,46.3865542 132.731825,46.7339337 C132.011886,47.1442651 131.651916,47.8018253 131.651916,48.7054699 C131.651916,49.3264036 131.87053,49.8237229 132.307759,50.198 C132.726675,50.5631205 133.292096,50.7456807 134.002307,50.7456807 C134.631253,50.7456807 135.214416,50.6043253 135.751795,50.3210422 C136.198181,50.0743855 136.562729,49.7556205 136.84544,49.3624578 L136.84544,50.5539639 L137.87041,50.5539639 L137.87041,46.0076988 C137.87041,45.1950482 137.660952,44.5512229 137.242036,44.0767952 C136.749867,43.5474277 136.002458,43.2824578 135.00038,43.2824578 Z" id="Fill-47" fill="#FFA42F"></path>
                    <path d="M141.013593,41.282994 C140.713142,41.611488 140.56263,42.072753 140.56263,42.6662169 L140.56263,43.4742892 L138.785672,43.4742892 L138.785672,44.3916687 L140.56263,44.3916687 L140.56263,50.5540783 L141.656274,50.5540783 L141.656274,44.3916687 L143.651274,44.3916687 L143.651274,43.4742892 L141.656274,43.4742892 L141.656274,42.6936867 C141.656274,42.3463072 141.724377,42.1002229 141.860581,41.9542892 C141.988774,41.7986265 142.211967,41.7213675 142.530732,41.7213675 L143.746846,41.7213675 L143.746846,40.7759458 L142.393955,40.7759458 C141.783895,40.7759458 141.323202,40.9453434 141.013593,41.282994" id="Fill-48" fill="#FFA42F"></path>
                    <path d="M145.414783,46.4733133 C145.487464,45.7699699 145.710657,45.2182831 146.084361,44.8159639 C146.467223,44.4056325 146.972554,44.1996084 147.600928,44.1996084 C148.949813,44.1996084 149.692645,44.9578916 149.829422,46.4733133 L145.414783,46.4733133 Z M150.143608,44.4331024 C149.569602,43.6662349 148.712886,43.2828012 147.573458,43.2828012 C146.553066,43.2828012 145.742133,43.6519277 145.140657,44.3913253 C144.548337,45.0769277 144.253036,45.9485241 144.253036,47.0078313 C144.253036,48.1575602 144.562645,49.0709337 145.182434,49.7462349 C145.792494,50.4129518 146.603428,50.7460241 147.615235,50.7460241 C148.517163,50.7460241 149.268578,50.4810542 149.870054,49.9516867 C150.343337,49.5133133 150.662675,48.9570482 150.826922,48.2806024 L149.733277,48.2806024 C149.551289,48.7830723 149.313789,49.1533434 149.023066,49.3902711 C148.657946,49.6821386 148.189241,49.8280723 147.615235,49.8280723 C146.940506,49.8280723 146.412283,49.6088855 146.029422,49.1710843 C145.655717,48.7418675 145.441681,48.1260843 145.387313,47.3220181 L150.963127,47.3220181 C150.935657,46.0807229 150.662675,45.1175602 150.143608,44.4331024 Z" id="Fill-49" fill="#FFA42F"></path>
                    <path d="M155.555575,43.2826867 C155.090877,43.2826867 154.667383,43.391994 154.284521,43.6111807 C153.90166,43.8120542 153.588045,44.1130783 153.341389,44.5148253 L153.341389,43.4744036 L152.248316,43.4744036 L152.248316,50.5541928 L153.341389,50.5541928 L153.341389,46.2814819 C153.387172,45.6330783 153.59663,45.1225964 153.969762,44.747747 C154.325726,44.3912108 154.74922,44.2138012 155.241389,44.2138012 C156.480395,44.2138012 157.100184,44.9028373 157.100184,46.2814819 L157.100184,50.5541928 L158.193256,50.5541928 L158.193256,46.1996446 C158.193256,44.2544337 157.313648,43.2826867 155.555575,43.2826867" id="Fill-50" fill="#FFA42F"></path>
                    <path d="M160.844786,48.9245422 C160.607858,48.9245422 160.412136,49.0023735 160.257617,49.1574639 C160.09337,49.3033976 160.011533,49.4951145 160.011533,49.7326145 C160.011533,49.9609578 160.09337,50.1566807 160.257617,50.3209277 C160.429877,50.4765904 160.626172,50.5544217 160.844786,50.5544217 C161.063973,50.5544217 161.259696,50.4765904 161.432527,50.3209277 C161.596202,50.1664096 161.678611,49.9701145 161.678611,49.7326145 C161.678611,49.4951145 161.596202,49.3033976 161.432527,49.1574639 C161.278009,49.0023735 161.081714,48.9245422 160.844786,48.9245422" id="Fill-51" fill="#FFA42F"></path>
                    <path d="M166.530765,49.828244 C165.819982,49.828244 165.278024,49.5775813 164.903747,49.0756837 C164.530614,48.5915271 164.344048,47.9110753 164.344048,47.0349006 C164.344048,46.1678825 164.535193,45.4828524 164.918054,44.9803825 C165.318657,44.4601717 165.860614,44.1997801 166.543928,44.1997801 C167.109349,44.1997801 167.564892,44.3319789 167.911127,44.5969488 C168.257361,44.8710753 168.475404,45.2819789 168.56697,45.8296596 L169.646307,45.8296596 C169.519259,44.9626416 169.186759,44.3188163 168.648807,43.898756 C168.120012,43.4878524 167.418958,43.2824006 166.543928,43.2824006 C165.487482,43.2824006 164.658235,43.65725 164.056759,44.4052319 C163.501066,45.0811054 163.222934,45.9618584 163.222934,47.0486355 C163.222934,48.1348404 163.501066,49.0115873 164.056759,49.6777319 C164.649078,50.3896596 165.473175,50.7461958 166.530765,50.7461958 C167.396066,50.7461958 168.09712,50.5178524 168.635645,50.0611657 C169.172452,49.6044789 169.523265,48.9154428 169.688084,47.9934849 L168.593867,47.9934849 C168.430193,49.2170392 167.742301,49.828244 166.530765,49.828244" id="Fill-52" fill="#FFA42F"></path>
                    <path d="M175.8925,48.9658614 C175.454699,49.541012 174.86753,49.8283012 174.129277,49.8283012 C173.373283,49.8283012 172.79012,49.541012 172.379789,48.9658614 C172.006084,48.4542349 171.819518,47.8064036 171.819518,47.0212229 C171.819518,46.2268855 172.006084,45.5739036 172.379789,45.0628494 C172.79012,44.4876988 173.373283,44.1998373 174.129277,44.1998373 C174.86753,44.1998373 175.454699,44.4876988 175.8925,45.0628494 C176.265633,45.5922169 176.452771,46.2451988 176.452771,47.0212229 C176.452771,47.7875181 176.265633,48.4359217 175.8925,48.9658614 M174.129277,43.2824578 C173.063675,43.2824578 172.22012,43.6475783 171.600904,44.3778193 C170.999428,45.072006 170.698976,45.952759 170.698976,47.0212229 C170.698976,48.0799578 170.999428,48.9521265 171.600904,49.6365843 C172.229849,50.3759819 173.072259,50.7456807 174.129277,50.7456807 C175.186295,50.7456807 176.033283,50.3759819 176.671386,49.6365843 C177.263705,48.9429699 177.559578,48.0713735 177.559578,47.0212229 C177.559578,45.952759 177.259127,45.072006 176.657651,44.3778193 C176.037861,43.6475783 175.195452,43.2824578 174.129277,43.2824578" id="Fill-53" fill="#FFA42F"></path>
                    <path d="M188.302361,43.9807078 C187.837663,43.5154367 187.241337,43.2825151 186.512241,43.2825151 C186.028657,43.2825151 185.614892,43.3923946 185.268084,43.611009 C184.885795,43.8118825 184.557873,44.1501054 184.284319,44.6245331 C183.892301,43.7300452 183.15462,43.2825151 182.070133,43.2825151 C181.268355,43.2825151 180.603355,43.6613705 180.07456,44.4190813 L180.07456,43.4742319 L178.981488,43.4742319 L178.981488,50.5540211 L180.07456,50.5540211 L180.07456,46.2401054 C180.07456,45.6746837 180.238807,45.1996837 180.566729,44.81625 C180.885494,44.414503 181.300404,44.2136295 181.810313,44.2136295 C182.894801,44.2136295 183.436759,44.8391416 183.436759,46.0901657 L183.436759,50.5540211 L184.530404,50.5540211 L184.530404,46.1170633 C184.530404,45.5424849 184.690072,45.0812199 185.008837,44.7338404 C185.300133,44.3870331 185.687572,44.2136295 186.170012,44.2136295 C186.781217,44.2136295 187.217873,44.3738705 187.482271,44.6926355 C187.746669,45.0033886 187.878867,45.4692319 187.878867,46.0901657 L187.878867,50.5540211 L188.972512,50.5540211 L188.972512,45.9116114 C188.972512,45.1172741 188.748747,44.4734488 188.302361,43.9807078" id="Fill-54" fill="#FFA42F"></path>
                </g>
            </g>
        </g>
    </g>
</svg>